<?xml version="1.0" encoding="UTF-8" standalone="no"?>
<svg
   xmlns:dc="http://purl.org/dc/elements/1.1/"
   xmlns:cc="http://creativecommons.org/ns#"
   xmlns:rdf="http://www.w3.org/1999/02/22-rdf-syntax-ns#"
   xmlns:svg="http://www.w3.org/2000/svg"
   xmlns="http://www.w3.org/2000/svg"
   xmlns:sodipodi="http://sodipodi.sourceforge.net/DTD/sodipodi-0.dtd"
   xmlns:inkscape="http://www.inkscape.org/namespaces/inkscape"
   inkscape:version="1.0 (4035a4fb49, 2020-05-01)"
   sodipodi:docname="icon_sprite_rotater.svg"
   id="svg4"
   version="1.1"
   width="16"
   viewBox="0 0 16 16"
   height="16">
  <metadata
     id="metadata10">
    <rdf:RDF>
      <cc:Work
         rdf:about="">
        <dc:format>image/svg+xml</dc:format>
        <dc:type
           rdf:resource="http://purl.org/dc/dcmitype/StillImage" />
      </cc:Work>
    </rdf:RDF>
  </metadata>
  <defs
     id="defs8" />
  <sodipodi:namedview
     inkscape:current-layer="svg4"
     inkscape:window-maximized="1"
     inkscape:window-y="-8"
     inkscape:window-x="-8"
     inkscape:cy="5.7411765"
     inkscape:cx="8"
     inkscape:zoom="53.125"
     showgrid="false"
     id="namedview6"
     inkscape:window-height="1017"
     inkscape:window-width="1920"
     inkscape:pageshadow="2"
     inkscape:pageopacity="0"
     guidetolerance="10"
     gridtolerance="10"
     objecttolerance="10"
     borderopacity="1"
     bordercolor="#666666"
     pagecolor="#ffffff" />
  <path
     id="path2"
     fill="#fc9c9c"
     d="m5 1c-2.216 0-4 1.784-4 4v6c0 2.216 1.784 4 4 4h6c2.216 0 4-1.784 4-4v-6c0-2.216-1.784-4-4-4zm-1 5c.554 0 1 .446 1 1v2c0 .554-.446 1-1 1s-1-.446-1-1v-2c0-.554.446-1 1-1zm8 0c.554 0 1 .446 1 1v2c0 .554-.446 1-1 1s-1-.446-1-1v-2c0-.554.446-1 1-1zm-1.8887 5.1074a1.0001 1.0001 0 0 1 .7168 1.7207c-.74987.74987-1.7676 1.1719-2.8281 1.1719s-2.0783-.422-2.8281-1.1719a1.0001 1.0001 0 0 1 .69727-1.7168 1.0001 1.0001 0 0 1 .7168.30273c.37534.37535.88325.58594 1.4141.58594s1.0387-.21059 1.4141-.58594a1.0001 1.0001 0 0 1 .69727-.30664z" />
  <path
     d="M 7.5052748,0.72357843 C 7.4719933,0.7072073 7.4544962,0.66825104 7.4214595,0.6523492 7.3356446,0.61104316 7.1828694,0.59199019 7.0981791,0.58036229 6.8764469,0.54991863 6.8299362,0.55125438 6.5962223,0.53564666 6.0382079,0.51497456 5.4779517,0.49853943 4.9202272,0.53690078 4.8253609,0.54342587 4.730814,0.55397145 4.6361073,0.56250678 4.3149981,0.59626477 3.9988068,0.66476023 3.7040343,0.79938224 3.4431261,0.91853847 2.918313,1.2526768 2.8078834,1.3187221 2.7538213,1.36315 2.6966565,1.4040508 2.6456971,1.4520059 2.4910539,1.597532 2.364483,1.7747106 2.2595939,1.9584532 c -0.033759,0.059139 -0.067404,0.1186984 -0.093916,0.1814221 -0.027983,0.066206 -0.046067,0.1361735 -0.069101,0.2042602 -0.036308,0.1635291 -0.064429,0.2517172 -0.06819,0.4199269 -0.00308,0.1378073 0.017842,0.2935018 0.051282,0.4269363 0.045568,0.1818262 0.072354,0.2185103 0.1506689,0.3860959 0.093602,0.1459188 0.1183112,0.2057459 0.2511529,0.3239822 0.061687,0.054905 0.1300155,0.1020799 0.1983924,0.1483878 0.1425789,0.096561 0.3108965,0.1895878 0.4671393,0.2609903 0.091398,0.041768 0.1858445,0.076514 0.2787667,0.1147704 0.2292701,0.081585 0.3477508,0.1305053 0.5856584,0.1877146 0.2470551,0.059409 0.4528287,0.086092 0.7063419,0.1165354 0.3541748,0.042531 0.4107899,0.042392 0.7699108,0.068621 0.7867291,0.054479 1.5755855,0.033218 2.3625087,-0.00249 0.1389192,-0.00717 0.2779268,-0.012794 0.4167575,-0.021512 0.3151276,-0.019788 0.6712191,-0.05006 0.984477,-0.078404 0.3345801,-0.030273 0.6743896,-0.063141 1.0081276,-0.1023185 0.155706,-0.018278 0.311051,-0.039506 0.466576,-0.05926 0.419841,-0.053582 0.835403,-0.1377642 1.243654,-0.249196 0.113287,-0.030922 0.226627,-0.062288 0.337575,-0.1007686 0.269458,-0.093459 0.338778,-0.1371288 0.585954,-0.2600265 0.239095,-0.1537073 0.488398,-0.2925903 0.717286,-0.4611217 0.0703,-0.05176 0.121204,-0.1261636 0.174366,-0.195407 0.135604,-0.1766243 0.24209,-0.3946273 0.324253,-0.6010811 0.02318,-0.058253 0.04183,-0.1182107 0.06274,-0.177316 0.06755,-0.2062353 0.110184,-0.4193315 0.131181,-0.6351663 0.0042,-0.043102 0.0087,-0.086274 0.0094,-0.1295737 6.32e-4,-0.039185 -0.0036,-0.078297 -0.0054,-0.117445 C 14.283205,1.4544986 14.21211,1.3213127 14.099039,1.2158848 14.028411,1.1500307 13.959962,1.1078858 13.880396,1.0535632 13.661623,0.9121532 13.424256,0.80415036 13.181318,0.7118984 13.021974,0.65153345 12.855882,0.61420447 12.686974,0.59454478 12.54015,0.58330052 12.39294,0.57687555 12.24576,0.57251999 c -0.165834,-0.006212 -0.331746,-0.007396 -0.497652,-0.004562 -0.198757,0.006165 -0.397624,0.005528 -0.596284,0.0143595 -0.133955,0.007488 -0.267642,0.0191872 -0.401045,0.0333438 -0.229341,0.0229019 -0.07392,0.0212699 -0.515342,0.32597667 0,0 0.397273,-0.21193412 0.397273,-0.21193412 v 0 C 9.8925181,1.2021719 10.0104,1.0579973 10.217518,1.0153925 c 0.137306,-0.0262067 0.27631,-0.0423831 0.415702,-0.0524586 0.196905,-0.0102403 0.394037,-0.00938 0.591135,-0.0130297 0.16403,-0.003004 0.328027,-0.002084 0.491985,0.00436 0.145839,0.006202 0.291837,0.009506 0.437483,0.0195684 0.168742,0.0140967 0.335943,0.0411232 0.49678,0.0960967 0.242618,0.084086 0.479969,0.1846918 0.69676,0.3239274 0.157778,0.1088092 0.308581,0.214783 0.369209,0.4069446 0.01024,0.032447 0.01449,0.066486 0.02174,0.09973 0.0021,0.036414 0.0061,0.072769 0.0062,0.1092406 10e-4,0.2520696 -0.05993,0.5005933 -0.130993,0.7405538 -0.02,0.057127 -0.03814,0.114944 -0.06002,0.1713816 -0.0789,0.2035486 -0.177845,0.4041342 -0.31523,0.575299 -0.05226,0.065113 -0.241275,0.1383964 -0.170819,0.183197 0.08418,0.053525 0.18375,-0.077703 0.275626,-0.116554 -0.256792,0.135257 -0.313236,0.1752807 -0.593542,0.2784726 -0.114159,0.042027 -0.230693,0.077496 -0.347446,0.111661 -0.412296,0.1206472 -0.833502,0.2075815 -1.258606,0.2686297 -0.157609,0.021751 -0.314974,0.045351 -0.472828,0.065252 C 9.8797541,4.3873717 9.0843092,4.442174 8.2880252,4.4747579 7.5036729,4.5035405 6.7177313,4.5339784 5.9336576,4.479151 5.8044102,4.4692499 5.6750068,4.4612088 5.5459153,4.4494477 4.9881487,4.3986314 4.4304782,4.3130808 3.907635,4.1036502 3.8178832,4.0650605 3.7267629,4.0295099 3.6383796,3.9878812 3.4134219,3.8819257 3.1863776,3.7548797 3.0025502,3.5849599 2.876624,3.4685609 2.8543275,3.4162991 2.762228,3.2758688 2.6867407,3.1172231 2.6585778,3.0785728 2.6161799,2.9054641 2.5485342,2.6292695 2.5660949,2.3586396 2.6464916,2.0875359 2.6719193,2.0214155 2.6934651,1.9536684 2.7227747,1.8891748 2.8326431,1.6474173 3.0122543,1.4012509 3.2107578,1.2251347 3.2620385,1.1796376 3.3186813,1.1405693 3.372643,1.0982866 3.260258,1.158678 3.1485395,1.2203262 3.0354881,1.2794606 2.9694032,1.3140279 3.1647186,1.2047341 3.2317282,1.1719956 3.5262837,1.0280867 3.844777,0.95177287 4.1685783,0.90948791 c 0.096596,-0.0109406 0.1929676,-0.0240838 0.2897875,-0.0328218 0.5515622,-0.0497784 1.1067768,-0.0390262 1.6585121,0.001464 0.1865325,0.0173402 0.2965603,0.0234951 0.4770661,0.0545969 0.1045477,0.0180139 0.2063649,0.0500218 0.3109305,0.0679314 0.034355,0.00588 0.069372,0.00686 0.1040583,0.010294 0.017882,0.00333 0.035764,0.00667 0.053647,0.010001 0,0 0.4426955,-0.29737466 0.442695,-0.29737497 z"
     id="path26"
     style="fill:#00ff00;fill-rule:evenodd" />
  <path
     d="m 10.559319,0.90747519 c 0.135307,-0.17556368 0.314616,-0.30574287 0.493705,-0.43272488 0.276285,-0.1866292 0.559855,-0.36220648 0.845282,-0.53442959 0.04302,-0.02646984 0.08697,-0.05136137 0.130444,-0.07705964 0.0048,-0.00283 0.02227,-0.0112107 0.02451,-0.0196833 0.0015,-0.005844 -4.65e-4,-0.0120802 -6.98e-4,-0.0181203 -0.06297,-0.0741741 -0.0075,-0.0197181 -0.221825,0.0717893 0,0 -0.172031,0.08816386 -0.172031,0.08816386 v 0 c -0.211854,0.1151133 -0.128569,0.10830661 -0.223599,0.11334601 -0.0028,-0.0018857 -0.005,-0.0050611 -0.0083,-0.005657 -0.0048,-8.763e-4 -0.02062,0.01041425 -0.02133,0.01086473 -0.03672,0.023183 -0.07324,0.0466931 -0.109989,0.0698292 -0.274274,0.17420887 -0.549182,0.34755126 -0.818962,0.52868201 -0.04835,0.0348349 -0.09757,0.0684916 -0.14504,0.1045048 -0.141125,0.10705249 -0.26815,0.22954301 -0.3898175,0.35783831 0,0 0.6176115,-0.25734355 0.6176115,-0.25734355 z"
     id="path28"
     style="fill:#00ff00;fill-rule:evenodd" />
  <path
     d="m 9.9754037,1.1900281 c 0.1613963,0.1344972 0.2702833,0.3197885 0.3743813,0.4990852 0.168383,0.2985275 0.304461,0.61341 0.457056,0.9199031 0.09191,0.141079 0.01779,0.070685 0.297896,-0.072788 0,0 0.0982,-0.070916 0.0982,-0.070916 v 0 c 0.222332,-0.1455638 0.26552,-0.079444 0.158609,-0.1759994 -0.02017,-0.031365 -0.04153,-0.061999 -0.06052,-0.094094 C 11.145578,1.9324723 11.029141,1.6491265 10.889561,1.3781651 10.78635,1.1901842 10.686429,0.99838809 10.54485,0.83548949 c 0,0 -0.5694463,0.35453861 -0.5694463,0.35453861 z"
     id="path30"
     style="fill:#00ff00;fill-rule:evenodd" />
</svg>
